<svg xmlns="http://www.w3.org/2000/svg" width="32" height="32" fill="none"><g clip-path="url(#a)"><path fill="url(#b)" d="M32 16.098c0-8.892-7.164-16.1-16-16.1C7.16 0-.004 7.206-.004 16.1c0 8.034 5.852 14.694 13.5 15.902v-11.25h-4.06V16.1H13.5v-3.55c0-4.034 2.39-6.262 6.044-6.262 1.752 0 3.582.314 3.582.314v3.96h-2.018c-1.986 0-2.606 1.242-2.606 2.516v3.02h4.436l-.708 4.652H18.5V32C26.148 30.792 32 24.132 32 16.098Z"/></g><defs><linearGradient id="b" x1="15.998" x2="15.998" y1="-.002" y2="32.002" gradientUnits="userSpaceOnUse"><stop stop-color="#AD9EFF"/><stop offset="1" stop-color="#8E80DE"/></linearGradient><clipPath id="a"><path fill="#fff" d="M0 0h32v32H0z"/></clipPath></defs></svg>