<svg xmlns="http://www.w3.org/2000/svg" width="258" height="31" fill="none"><path fill="#000" fill-opacity=".6" d="M5.712 31a5.32 5.32 0 0 1-2.72-.72 5.316 5.316 0 0 1-1.96-1.96 5.32 5.32 0 0 1-.72-2.72v-18c0-.987.24-1.893.72-2.72a5.316 5.316 0 0 1 1.96-1.96 5.32 5.32 0 0 1 2.72-.72h23.32v4.84H6.552c-.427 0-.773.133-1.04.4-.267.24-.4.573-.4 1v16.32c0 .427.133.773.4 1.04.267.24.613.36 1.04.36h22.48V31H5.712ZM33.043 31V7.8h4.76V31h-4.76Zm0-26V.2h4.76V5h-4.76ZM42.418 31V13.16c0-.987.24-1.88.72-2.68.506-.8 1.16-1.44 1.96-1.92a5.036 5.036 0 0 1 2.68-.76h12.92v4.76h-12.76c-.214 0-.4.08-.56.24a.703.703 0 0 0-.2.52V31h-4.76ZM68.48 31c-.987 0-1.88-.24-2.68-.72a6.252 6.252 0 0 1-1.96-1.96c-.48-.8-.72-1.693-.72-2.68V13.16c0-.987.24-1.88.72-2.68.507-.8 1.16-1.44 1.96-1.92.8-.507 1.693-.76 2.68-.76h18.16v4.76h-18c-.213 0-.4.08-.56.24a.703.703 0 0 0-.2.52v12.16c0 .213.067.4.2.56.16.133.347.2.56.2h18.04V31h-18.2ZM95.435 31a5.32 5.32 0 0 1-2.72-.72 5.865 5.865 0 0 1-1.92-1.96c-.48-.8-.72-1.693-.72-2.68V7.8h4.76v17.68c0 .213.067.4.2.56.16.133.347.2.56.2h12.52a.705.705 0 0 0 .52-.2c.16-.16.24-.347.24-.56V7.8h4.76v17.84c0 .987-.24 1.88-.72 2.68-.48.8-1.12 1.453-1.92 1.96-.8.48-1.707.72-2.72.72h-12.84ZM117.847 31V7.8h4.76V31h-4.76Zm0-26V.2h4.76V5h-4.76ZM132.427 31a5.32 5.32 0 0 1-2.72-.72 5.865 5.865 0 0 1-1.92-1.96c-.48-.8-.72-1.693-.72-2.68V.56h4.76V7.8h9.28v4.76h-9.28v12.92c0 .213.067.4.2.56.16.133.347.2.56.2h8.52V31h-8.68ZM149.853 31c-.987 0-1.894-.24-2.72-.72a5.314 5.314 0 0 1-1.96-1.96 5.32 5.32 0 0 1-.72-2.72v-18c0-.987.24-1.893.72-2.72a5.313 5.313 0 0 1 1.96-1.96 5.318 5.318 0 0 1 2.72-.72h23.32v4.84h-22.48c-.427 0-.774.133-1.04.4-.267.24-.4.573-.4 1v16.32c0 .427.133.773.4 1.04.266.24.613.36 1.04.36h22.48V31h-23.32ZM177.183 31V13.16c0-.987.24-1.88.72-2.68.507-.8 1.16-1.44 1.96-1.92a5.037 5.037 0 0 1 2.68-.76h12.92v4.76h-12.76c-.213 0-.4.08-.56.24a.705.705 0 0 0-.2.52V31h-4.76ZM203.715 31a5.32 5.32 0 0 1-2.72-.72 5.865 5.865 0 0 1-1.92-1.96c-.48-.8-.72-1.693-.72-2.68V17h18.8v-3.68a.645.645 0 0 0-.24-.52.645.645 0 0 0-.52-.24h-18.04V7.8h18.2c1.013 0 1.92.253 2.72.76.8.48 1.44 1.12 1.92 1.92.48.8.72 1.693.72 2.68V31h-18.2Zm.16-4.76h13.28v-4.88h-14.04v4.12c0 .213.067.4.2.56.16.133.347.2.56.2ZM226.169 31V5.56c0-.987.24-1.88.72-2.68a5.414 5.414 0 0 1 1.92-1.96 5.318 5.318 0 0 1 2.72-.72h8.68V5h-8.52c-.214 0-.4.08-.56.24a.652.652 0 0 0-.2.48V7.8h9.28v4.76h-9.28V31h-4.76ZM249.185 31c-.987 0-1.894-.24-2.72-.72a5.865 5.865 0 0 1-1.92-1.96c-.48-.8-.72-1.693-.72-2.68V.56h4.76V7.8h9.28v4.76h-9.28v12.92c0 .213.066.4.2.56.16.133.346.2.56.2h8.52V31h-8.68Z"/></svg>