<svg xmlns="http://www.w3.org/2000/svg" width="144" height="30" fill="none"><path fill="#000" fill-opacity=".6" d="M6.74.64h4.52L5.22 29H.7L6.74.64ZM17.6.6h11.36c1.386 0 2.573.373 3.56 1.12 1.013.72 1.786 1.667 2.32 2.84.533 1.173.8 2.413.8 3.72 0 1.307-.28 2.6-.84 3.88a12.32 12.32 0 0 1-2.24 3.52 11.77 11.77 0 0 1-3.32 2.52c-1.254.613-2.6.92-4.04.92h-7.04L16.08 29h-4.52L17.6.6Zm8.2 14.56c.666 0 1.32-.173 1.96-.52.64-.373 1.2-.853 1.68-1.44a7.104 7.104 0 0 0 1.12-2.08c.293-.773.44-1.6.44-2.48 0-.827-.147-1.533-.44-2.12-.267-.613-.64-1.093-1.12-1.44a2.73 2.73 0 0 0-1.64-.52h-6.52L19 15.16h6.8ZM44.703 29.28c-2.027 0-3.947-.32-5.76-.96-1.787-.667-3.333-1.627-4.64-2.88l2.92-3.84c.213.347.573.733 1.08 1.16.507.4 1.133.787 1.88 1.16.747.373 1.573.693 2.48.96.933.24 1.92.36 2.96.36 1.253 0 2.32-.173 3.2-.52.88-.347 1.547-.84 2-1.48.48-.64.72-1.413.72-2.32 0-.773-.267-1.413-.8-1.92-.533-.507-1.28-.933-2.24-1.28a49.33 49.33 0 0 0-3.32-1.08c-1.413-.427-2.613-.893-3.6-1.4-.96-.533-1.693-1.173-2.2-1.92-.48-.747-.72-1.667-.72-2.76 0-1.6.307-3.027.92-4.28a9.76 9.76 0 0 1 2.6-3.2 12.05 12.05 0 0 1 3.8-2C47.423.627 48.93.4 50.503.4c1.227 0 2.36.147 3.4.44 1.067.267 2.027.64 2.88 1.12.853.48 1.6 1.027 2.24 1.64l-2.8 3.68c-.16-.293-.453-.6-.88-.92-.4-.347-.907-.667-1.52-.96a9.758 9.758 0 0 0-2-.72 9.053 9.053 0 0 0-2.28-.28c-1.333 0-2.44.2-3.32.6-.88.4-1.547.947-2 1.64-.427.693-.64 1.493-.64 2.4 0 .693.213 1.267.64 1.72.453.453 1.093.84 1.92 1.16.853.293 1.893.613 3.12.96 1.493.4 2.773.867 3.84 1.4 1.093.533 1.947 1.227 2.56 2.08.613.827.92 1.893.92 3.2 0 1.68-.32 3.147-.96 4.4a8.535 8.535 0 0 1-2.64 3.04c-1.12.773-2.4 1.347-3.84 1.72-1.413.373-2.893.56-4.44.56ZM67.737 29.4c-1.76 0-3.267-.387-4.52-1.16a7.666 7.666 0 0 1-2.88-3.16c-.64-1.333-.96-2.84-.96-4.52 0-1.733.32-3.36.96-4.88a12.89 12.89 0 0 1 2.72-4.12 12.66 12.66 0 0 1 4.08-2.8c1.573-.693 3.28-1.04 5.12-1.04 1.44 0 2.693.227 3.76.68 1.093.427 1.933 1.067 2.52 1.92.613.827.92 1.88.92 3.16 0 2.133-.974 3.76-2.92 4.88-1.92 1.12-4.854 1.68-8.8 1.68-.747 0-1.587-.013-2.52-.04a95.125 95.125 0 0 1-3.16-.24l.6-2.84c1.066.053 2.013.107 2.84.16.826.053 1.6.08 2.32.08 1.893 0 3.386-.147 4.48-.44 1.093-.293 1.88-.707 2.36-1.24.48-.56.72-1.187.72-1.88 0-.613-.147-1.107-.44-1.48-.294-.373-.707-.653-1.24-.84-.534-.213-1.174-.32-1.92-.32a6.704 6.704 0 0 0-3.24.8c-.987.507-1.84 1.227-2.56 2.16a10.984 10.984 0 0 0-1.64 3.08 11.683 11.683 0 0 0-.56 3.64c0 1.013.16 1.947.48 2.8a4.648 4.648 0 0 0 1.56 2c.72.48 1.613.72 2.68.72 1.146 0 2.253-.28 3.32-.84 1.066-.587 1.906-1.373 2.52-2.36l3.48 1.08c-.667 1.04-1.534 1.973-2.6 2.8a12.984 12.984 0 0 1-3.56 1.88c-1.28.453-2.587.68-3.92.68ZM84.854 8.08h3.96l-.88 4.2a10.602 10.602 0 0 1 2.48-2.4c.96-.693 2-1.227 3.12-1.6s2.253-.56 3.4-.56c1.173 0 2.093.213 2.76.64a3.604 3.604 0 0 1 1.44 1.76c.293.72.44 1.547.44 2.48 0 .56-.054 1.147-.16 1.76-.08.613-.187 1.24-.32 1.88L98.414 29h-4.4l2.48-11.72c.106-.507.186-.96.24-1.36.053-.427.08-.827.08-1.2 0-1.067-.227-1.84-.68-2.32-.427-.507-1.054-.76-1.88-.76-.774 0-1.6.213-2.48.64-.854.427-1.667 1.013-2.44 1.76-.774.72-1.4 1.56-1.88 2.52L84.774 29h-4.4l4.48-20.92ZM110.662 29.4c-1.68 0-3.253-.267-4.72-.8-1.466-.533-2.666-1.32-3.6-2.36l2.36-2.8c.96.88 1.974 1.547 3.04 2a8.798 8.798 0 0 0 3.4.68c.907 0 1.694-.133 2.36-.4.694-.267 1.227-.64 1.6-1.12.374-.48.56-1.04.56-1.68 0-.827-.346-1.413-1.04-1.76-.693-.347-1.746-.72-3.16-1.12-1.36-.427-2.48-.827-3.36-1.2-.88-.373-1.533-.84-1.96-1.4-.4-.56-.6-1.307-.6-2.24 0-1.467.4-2.76 1.2-3.88.827-1.12 1.934-2 3.32-2.64 1.387-.64 2.947-.96 4.68-.96 1.574 0 2.947.24 4.12.72 1.2.48 2.214 1.173 3.04 2.08l-2.44 2.64c-.746-.773-1.533-1.333-2.36-1.68-.8-.347-1.706-.52-2.72-.52-.88 0-1.666.12-2.36.36-.666.24-1.2.6-1.6 1.08-.373.48-.56 1.067-.56 1.76 0 .72.267 1.24.8 1.56.534.32 1.48.667 2.84 1.04 1.44.4 2.654.827 3.64 1.28.987.453 1.72 1 2.2 1.64.507.64.76 1.48.76 2.52 0 1.36-.386 2.587-1.16 3.68-.773 1.093-1.866 1.96-3.28 2.6-1.413.613-3.08.92-5 .92ZM131.526 29.4c-1.76 0-3.267-.387-4.52-1.16a7.658 7.658 0 0 1-2.88-3.16c-.64-1.333-.96-2.84-.96-4.52 0-1.733.32-3.36.96-4.88a12.88 12.88 0 0 1 2.72-4.12 12.653 12.653 0 0 1 4.08-2.8c1.573-.693 3.28-1.04 5.12-1.04 1.44 0 2.693.227 3.76.68 1.093.427 1.933 1.067 2.52 1.92.613.827.92 1.88.92 3.16 0 2.133-.974 3.76-2.92 4.88-1.92 1.12-4.854 1.68-8.8 1.68-.747 0-1.587-.013-2.52-.04a94.943 94.943 0 0 1-3.16-.24l.6-2.84c1.066.053 2.013.107 2.84.16.826.053 1.6.08 2.32.08 1.893 0 3.386-.147 4.48-.44 1.093-.293 1.88-.707 2.36-1.24.48-.56.72-1.187.72-1.88 0-.613-.147-1.107-.44-1.48-.294-.373-.707-.653-1.24-.84-.534-.213-1.174-.32-1.92-.32-1.174 0-2.254.267-3.24.8-.987.507-1.84 1.227-2.56 2.16a10.969 10.969 0 0 0-1.64 3.08 11.665 11.665 0 0 0-.56 3.64c0 1.013.16 1.947.48 2.8a4.639 4.639 0 0 0 1.56 2c.72.48 1.613.72 2.68.72 1.146 0 2.253-.28 3.32-.84 1.066-.587 1.906-1.373 2.52-2.36l3.48 1.08c-.667 1.04-1.534 1.973-2.6 2.8a12.997 12.997 0 0 1-3.56 1.88c-1.28.453-2.587.68-3.92.68Z"/></svg>