<svg xmlns="http://www.w3.org/2000/svg" width="196" height="41" fill="none"><path fill="#000" fill-opacity=".6" d="M8.78 33.36c-2.293 0-4.08-.48-5.36-1.44-1.253-.96-2.133-2.253-2.64-3.88C.3 26.413.06 24.6.06 22.6V11.16c0-2.187.24-4.093.72-5.72.507-1.627 1.387-2.88 2.64-3.76C4.7.773 6.488.32 8.78.32c2.027 0 3.627.373 4.8 1.12 1.2.747 2.054 1.813 2.56 3.2.534 1.387.8 3.053.8 5v2.56h-4.28V9.92c0-1.2-.066-2.253-.2-3.16-.106-.933-.426-1.653-.96-2.16-.533-.507-1.426-.76-2.68-.76-1.28 0-2.213.28-2.8.84-.586.533-.973 1.307-1.16 2.32-.16.987-.24 2.147-.24 3.48v12.84c0 1.627.134 2.92.4 3.88.267.933.707 1.6 1.32 2 .614.4 1.44.6 2.48.6 1.227 0 2.107-.267 2.64-.8.534-.56.867-1.32 1-2.28.134-.96.2-2.08.2-3.36v-2.4h4.28v2.4c0 1.973-.24 3.72-.72 5.24-.48 1.493-1.306 2.667-2.48 3.52-1.173.827-2.826 1.24-4.96 1.24ZM27.247 33.32c-1.707 0-3.054-.347-4.04-1.04-.987-.693-1.694-1.68-2.12-2.96-.4-1.28-.6-2.787-.6-4.52v-6.72c0-1.733.2-3.24.6-4.52.426-1.28 1.133-2.267 2.12-2.96.986-.693 2.333-1.04 4.04-1.04 1.706 0 3.04.347 4 1.04.986.693 1.68 1.68 2.08 2.96.426 1.28.64 2.787.64 4.52v6.72c0 1.733-.214 3.24-.64 4.52-.4 1.28-1.094 2.267-2.08 2.96-.96.693-2.294 1.04-4 1.04Zm0-3.16c.826 0 1.4-.24 1.72-.72.346-.48.546-1.107.6-1.88.08-.8.12-1.627.12-2.48v-7.24c0-.88-.04-1.707-.12-2.48-.054-.773-.254-1.4-.6-1.88-.32-.507-.894-.76-1.72-.76-.827 0-1.414.253-1.76.76-.347.48-.56 1.107-.64 1.88-.054.773-.08 1.6-.08 2.48v7.24c0 .853.026 1.68.08 2.48.08.773.293 1.4.64 1.88.346.48.933.72 1.76.72ZM37.879 33V9.88h4.28v2.28a12.471 12.471 0 0 1 2.56-1.84c.933-.507 1.96-.76 3.08-.76.933 0 1.64.24 2.12.72.506.48.853 1.08 1.04 1.8.213.72.32 1.453.32 2.2V33h-4.28V15.52c0-.827-.12-1.467-.36-1.92-.24-.453-.734-.68-1.48-.68-.48 0-.987.147-1.52.44-.507.267-1 .6-1.48 1V33h-4.28ZM60.817 33.32c-1.894 0-3.413-.587-4.56-1.76-1.147-1.2-1.8-2.773-1.96-4.72l3.56-1.08c.213 1.467.573 2.573 1.08 3.32.507.72 1.253 1.08 2.24 1.08.773 0 1.36-.213 1.76-.64.4-.453.6-1.053.6-1.8 0-.667-.147-1.267-.44-1.8-.294-.533-.773-1.08-1.44-1.64l-3.96-3.4c-.8-.693-1.48-1.467-2.04-2.32-.533-.853-.8-1.96-.8-3.32 0-1.227.24-2.253.72-3.08a4.818 4.818 0 0 1 2.08-1.92c.907-.453 1.96-.68 3.16-.68 1.84 0 3.24.6 4.2 1.8.987 1.173 1.547 2.6 1.68 4.28l-2.88 1.08c-.107-.8-.267-1.493-.48-2.08-.214-.613-.507-1.08-.88-1.4-.373-.347-.867-.52-1.48-.52-.694 0-1.253.24-1.68.72-.4.453-.6 1-.6 1.64 0 .4.08.8.24 1.2.187.373.493.747.92 1.12l4.08 3.76c.56.507 1.08 1.053 1.56 1.64a7.64 7.64 0 0 1 1.24 2c.32.747.48 1.613.48 2.6 0 1.307-.267 2.4-.8 3.28a5.102 5.102 0 0 1-2.24 2c-.96.427-2.08.64-3.36.64ZM76.778 33.32c-1.707 0-3.054-.347-4.04-1.04-.987-.693-1.694-1.68-2.12-2.96-.4-1.28-.6-2.787-.6-4.52v-6.72c0-1.733.2-3.24.6-4.52.426-1.28 1.133-2.267 2.12-2.96.986-.693 2.333-1.04 4.04-1.04 1.706 0 3.04.347 4 1.04.986.693 1.68 1.68 2.08 2.96.426 1.28.64 2.787.64 4.52v6.72c0 1.733-.214 3.24-.64 4.52-.4 1.28-1.094 2.267-2.08 2.96-.96.693-2.294 1.04-4 1.04Zm0-3.16c.826 0 1.4-.24 1.72-.72.346-.48.546-1.107.6-1.88.08-.8.12-1.627.12-2.48v-7.24c0-.88-.04-1.707-.12-2.48-.054-.773-.254-1.4-.6-1.88-.32-.507-.894-.76-1.72-.76-.827 0-1.414.253-1.76.76-.347.48-.56 1.107-.64 1.88-.054.773-.08 1.6-.08 2.48v7.24c0 .853.026 1.68.08 2.48.08.773.293 1.4.64 1.88.346.48.933.72 1.76.72ZM87.81 33V.6h4.28V33h-4.28ZM102.951 33.32c-1.814 0-3.214-.347-4.2-1.04-.987-.72-1.68-1.76-2.08-3.12-.374-1.387-.56-3.08-.56-5.08V18.8c0-2.053.2-3.76.6-5.12.4-1.36 1.093-2.387 2.08-3.08 1.013-.693 2.4-1.04 4.16-1.04 1.946 0 3.373.4 4.28 1.2.933.8 1.546 1.96 1.84 3.48.293 1.493.44 3.293.44 5.4v1.88h-9.12v4.64c0 .933.08 1.693.24 2.28.186.587.466 1.027.84 1.32.4.267.906.4 1.52.4.64 0 1.12-.147 1.44-.44.346-.32.573-.76.68-1.32.133-.587.2-1.267.2-2.04v-1.4h4.16v.88c0 2.32-.494 4.147-1.48 5.48-.987 1.333-2.667 2-5.04 2Zm-2.56-14.12h4.92v-2.08c0-.96-.054-1.76-.16-2.4-.107-.667-.334-1.16-.68-1.48-.32-.347-.84-.52-1.56-.52-.694 0-1.227.16-1.6.48-.347.32-.587.867-.72 1.64-.134.747-.2 1.787-.2 3.12v1.24ZM127.087 33 121.807.6h3.76l3.48 23.28 4.36-23.16h3.2l4.4 23.28 3.4-23.4h3.68l-5.2 32.4h-3.28l-4.52-24-4.56 24h-3.44ZM151.788 33V9.88h4.28v3.28c.853-1.413 1.706-2.36 2.56-2.84.853-.48 1.706-.72 2.56-.72h.28c.106 0 .24.013.4.04v4.72a5.618 5.618 0 0 0-1.12-.32c-.4-.107-.814-.16-1.24-.16-.667 0-1.28.16-1.84.48-.534.293-1.067.88-1.6 1.76V33h-4.28ZM168.679 33.32c-.906 0-1.706-.253-2.4-.76a5.71 5.71 0 0 1-1.64-2c-.4-.827-.6-1.693-.6-2.6 0-1.44.24-2.653.72-3.64a7.175 7.175 0 0 1 1.96-2.48 13.836 13.836 0 0 1 2.92-1.8c1.12-.507 2.294-1 3.52-1.48v-1.64c0-.933-.053-1.707-.16-2.32-.106-.613-.333-1.067-.68-1.36-.32-.32-.813-.48-1.48-.48-.586 0-1.066.133-1.44.4-.346.267-.6.653-.76 1.16-.16.48-.24 1.053-.24 1.72v1.16l-4.24-.16c.054-2.56.64-4.44 1.76-5.64 1.12-1.227 2.854-1.84 5.2-1.84 2.294 0 3.92.627 4.88 1.88s1.44 3.067 1.44 5.44v10.56c0 .72.014 1.413.04 2.08.054.667.107 1.293.16 1.88.08.56.147 1.093.2 1.6h-3.92c-.08-.427-.186-.96-.32-1.6a32.312 32.312 0 0 1-.24-1.8c-.266.907-.786 1.76-1.56 2.56-.746.773-1.786 1.16-3.12 1.16Zm1.68-3.68c.427 0 .827-.12 1.2-.36.374-.24.707-.507 1-.8.294-.32.494-.573.6-.76v-6.56c-.666.373-1.293.747-1.88 1.12a10.53 10.53 0 0 0-1.56 1.2c-.426.4-.773.867-1.04 1.4-.24.507-.36 1.093-.36 1.76 0 .933.174 1.667.52 2.2.347.533.854.8 1.52.8ZM181.551 40.6V9.88h4.28v1.84a7.356 7.356 0 0 1 1.84-1.52c.72-.427 1.573-.64 2.56-.64 1.2 0 2.146.32 2.84.96.72.613 1.253 1.4 1.6 2.36.346.933.573 1.893.68 2.88.106.96.16 1.787.16 2.48v5.6c0 1.627-.16 3.173-.48 4.64-.32 1.44-.907 2.613-1.76 3.52-.827.88-2 1.32-3.52 1.32-.827 0-1.56-.2-2.2-.6a10.029 10.029 0 0 1-1.72-1.44v9.32h-4.28Zm7.36-10.64c.746 0 1.28-.267 1.6-.8.32-.56.52-1.307.6-2.24.08-.933.12-1.96.12-3.08v-5.6c0-.96-.054-1.84-.16-2.64-.107-.827-.334-1.48-.68-1.96-.347-.48-.894-.72-1.64-.72-.56 0-1.094.12-1.6.36-.507.24-.947.52-1.32.84v14.8c.4.293.853.547 1.36.76.506.187 1.08.28 1.72.28Z"/></svg>