<svg xmlns="http://www.w3.org/2000/svg" width="208" height="29" fill="none"><path fill="#000" fill-opacity=".6" d="M.76 28V0h4.28l12.24 20.44h-2.24L27.08 0h4.28l.04 28h-4.92l-.04-20.28h1.04L17.24 24.8h-2.32L4.52 7.72h1.2V28H.76ZM48.523 28.28c-2.373 0-4.453-.467-6.24-1.4-1.76-.96-3.133-2.267-4.12-3.92-.96-1.653-1.44-3.533-1.44-5.64 0-2.133.467-4.013 1.4-5.64a10.334 10.334 0 0 1 3.92-3.88c1.68-.933 3.587-1.4 5.72-1.4 2.08 0 3.934.453 5.56 1.36 1.627.907 2.907 2.187 3.84 3.84.934 1.653 1.4 3.6 1.4 5.84 0 .213-.013.453-.04.72 0 .267-.013.52-.04.76h-17.8V15.6h15.16l-1.96 1.04c.027-1.227-.227-2.307-.76-3.24a5.81 5.81 0 0 0-2.2-2.2c-.907-.533-1.96-.8-3.16-.8-1.227 0-2.306.267-3.24.8-.907.533-1.627 1.28-2.16 2.24-.507.933-.76 2.04-.76 3.32v.8c0 1.28.294 2.413.88 3.4.587.987 1.414 1.747 2.48 2.28 1.067.533 2.294.8 3.68.8 1.2 0 2.28-.187 3.24-.56.96-.373 1.813-.96 2.56-1.76l2.68 3.08c-.96 1.12-2.173 1.987-3.64 2.6-1.44.587-3.093.88-4.96.88ZM90.326 6.4c1.707 0 3.213.333 4.52 1 1.333.667 2.373 1.693 3.12 3.08.747 1.36 1.12 3.12 1.12 5.28V28h-5V16.4c0-1.893-.413-3.307-1.24-4.24-.827-.933-2.013-1.4-3.56-1.4-1.093 0-2.067.24-2.92.72-.827.48-1.48 1.187-1.96 2.12-.453.933-.68 2.12-.68 3.56V28h-5V16.4c0-1.893-.413-3.307-1.24-4.24-.827-.933-2.013-1.4-3.56-1.4-1.093 0-2.067.24-2.92.72-.827.48-1.48 1.187-1.96 2.12-.453.933-.68 2.12-.68 3.56V28h-5V6.64h4.76v5.68l-.84-1.68c.72-1.387 1.76-2.44 3.12-3.16 1.387-.72 2.96-1.08 4.72-1.08 2 0 3.733.493 5.2 1.48 1.493.987 2.48 2.48 2.96 4.48l-1.96-.68c.693-1.6 1.84-2.88 3.44-3.84 1.6-.96 3.453-1.44 5.56-1.44ZM115.114 28.28c-2.186 0-4.133-.467-5.84-1.4a10.768 10.768 0 0 1-4.04-3.92c-.986-1.653-1.48-3.533-1.48-5.64 0-2.133.494-4.013 1.48-5.64a10.471 10.471 0 0 1 4.04-3.88c1.707-.933 3.654-1.4 5.84-1.4 2.214 0 4.174.467 5.88 1.4 1.734.933 3.08 2.213 4.04 3.84.987 1.627 1.48 3.52 1.48 5.68 0 2.107-.493 3.987-1.48 5.64-.96 1.653-2.306 2.96-4.04 3.92-1.706.933-3.666 1.4-5.88 1.4Zm0-4.28c1.227 0 2.32-.267 3.28-.8s1.707-1.307 2.24-2.32c.56-1.013.84-2.2.84-3.56 0-1.387-.28-2.573-.84-3.56-.533-1.013-1.28-1.787-2.24-2.32-.96-.533-2.04-.8-3.24-.8-1.226 0-2.32.267-3.28.8-.933.533-1.68 1.307-2.24 2.32-.56.987-.84 2.173-.84 3.56 0 1.36.28 2.547.84 3.56.56 1.013 1.307 1.787 2.24 2.32.96.533 2.04.8 3.24.8ZM130.816 28V0h12.8c2.56 0 4.76.413 6.6 1.24 1.866.827 3.306 2.027 4.32 3.6 1.013 1.547 1.52 3.387 1.52 5.52 0 2.107-.507 3.933-1.52 5.48-1.014 1.52-2.454 2.693-4.32 3.52-1.84.8-4.04 1.2-6.6 1.2h-8.4l3.52-3.32V28h-7.92Zm17.32 0-6.96-10.2h8.44l7 10.2h-8.48Zm-9.4-9.92-3.52-3.64h7.92c1.653 0 2.88-.36 3.68-1.08.826-.72 1.24-1.72 1.24-3 0-1.307-.414-2.32-1.24-3.04-.8-.72-2.027-1.08-3.68-1.08h-7.92l3.52-3.64v15.48ZM171.425 28.36c-2.56 0-4.8-.48-6.72-1.44-1.893-.987-3.373-2.32-4.44-4-1.04-1.707-1.56-3.64-1.56-5.8 0-2.16.507-4.08 1.52-5.76 1.04-1.707 2.467-3.027 4.28-3.96 1.813-.96 3.853-1.44 6.12-1.44 2.133 0 4.08.44 5.84 1.32a9.962 9.962 0 0 1 4.2 3.8c1.04 1.68 1.56 3.72 1.56 6.12 0 .267-.013.573-.04.92-.027.347-.053.667-.08.96h-17.16v-4h13.12l-2.88 1.12c.027-.987-.16-1.84-.56-2.56a4.05 4.05 0 0 0-1.6-1.68c-.667-.4-1.453-.6-2.36-.6-.907 0-1.707.2-2.4.6-.667.4-1.187.973-1.56 1.72-.373.72-.56 1.573-.56 2.56v1.16c0 1.067.213 1.987.64 2.76a4.634 4.634 0 0 0 1.92 1.8c.827.4 1.813.6 2.96.6 1.067 0 1.973-.147 2.72-.44.773-.32 1.533-.8 2.28-1.44l4 4.16c-1.04 1.147-2.32 2.027-3.84 2.64-1.52.587-3.32.88-5.4.88ZM182.623 28l9.96-13.08-.16 4.32-9.56-12.92h8.56l5.36 7.64-3.2.16 5.68-7.8h8.04l-9.56 12.64V14.8l9.84 13.2h-8.68l-5.6-8.16 3.2.44-5.64 7.72h-8.24Z"/></svg>