<svg xmlns="http://www.w3.org/2000/svg" width="32" height="32" fill="none"><path fill="url(#a)" d="M20.667 25.667H18.6a.614.614 0 0 1-.583-.35.615.615 0 0 1 .05-.684l3.333-4.766c.111-.134.239-.178.383-.134.145.045.217.156.217.334V23h2.067c.266 0 .46.117.583.35a.615.615 0 0 1-.05.683L21.267 28.8c-.111.133-.24.178-.384.133-.144-.044-.216-.155-.216-.333v-2.933Zm-11.334 4a1.29 1.29 0 0 1-.95-.384 1.29 1.29 0 0 1-.383-.95V7c0-.378.128-.694.383-.95a1.29 1.29 0 0 1 .95-.383H12V4.333c0-.377.128-.694.383-.95a1.29 1.29 0 0 1 .95-.383H16c.378 0 .694.128.95.383.256.256.383.573.383.95v1.334H20c.378 0 .694.127.95.383s.383.572.383.95v8.433a.866.866 0 0 1-.266.634 1.174 1.174 0 0 1-.634.333c-.933.111-1.8.361-2.6.75s-1.51.894-2.133 1.517a8.353 8.353 0 0 0-1.717 2.516c-.433.967-.65 2.017-.65 3.15a7.747 7.747 0 0 0 .933 3.733c.178.378.178.74 0 1.084-.177.344-.455.517-.833.517h-4.1Z"/><defs><linearGradient id="a" x1="16.365" x2="16.365" y1="3" y2="29.667" gradientUnits="userSpaceOnUse"><stop stop-color="#AD9EFF"/><stop offset="1" stop-color="#8E80DE"/></linearGradient></defs></svg>