<svg xmlns="http://www.w3.org/2000/svg" width="32" height="32" fill="none"><path fill="url(#a)" d="M5.333 24a2.568 2.568 0 0 1-1.883-.783 2.568 2.568 0 0 1-.784-1.884V10.667c0-.734.262-1.361.784-1.884A2.568 2.568 0 0 1 5.333 8h21.334c.733 0 1.36.261 1.883.783.522.523.783 1.15.783 1.884v10.666c0 .734-.26 1.361-.783 1.884a2.568 2.568 0 0 1-1.884.783H5.334Zm4-6.667v1.334c0 .377.128.694.383.95.256.255.573.383.95.383.378 0 .695-.128.95-.383a1.29 1.29 0 0 0 .384-.95v-1.334h1.333c.378 0 .695-.127.95-.383a1.29 1.29 0 0 0 .383-.95 1.29 1.29 0 0 0-.383-.95 1.29 1.29 0 0 0-.95-.383H12v-1.334a1.29 1.29 0 0 0-.383-.95 1.29 1.29 0 0 0-.95-.383 1.29 1.29 0 0 0-.95.383 1.29 1.29 0 0 0-.384.95v1.334H8a1.29 1.29 0 0 0-.95.383 1.29 1.29 0 0 0-.383.95c0 .378.127.694.383.95.255.256.572.383.95.383h1.333Zm10 2.667c.556 0 1.028-.194 1.417-.583.389-.39.583-.861.583-1.417s-.194-1.028-.583-1.417A1.929 1.929 0 0 0 19.333 16c-.555 0-1.028.194-1.416.583A1.929 1.929 0 0 0 17.332 18c0 .556.195 1.028.584 1.417.388.389.86.583 1.416.583Zm4-4c.556 0 1.028-.194 1.417-.583.389-.39.583-.861.583-1.417s-.194-1.028-.583-1.417A1.929 1.929 0 0 0 23.333 12c-.555 0-1.028.194-1.416.583A1.929 1.929 0 0 0 21.332 14c0 .556.195 1.028.584 1.417.388.389.86.583 1.416.583Z"/><defs><linearGradient id="a" x1="16" x2="16" y1="8" y2="24" gradientUnits="userSpaceOnUse"><stop stop-color="#AD9EFF"/><stop offset="1" stop-color="#8E80DE"/></linearGradient></defs></svg>