<svg xmlns="http://www.w3.org/2000/svg" width="32" height="32" fill="none"><path fill="url(#a)" d="M16 29.333a12.9 12.9 0 0 1-5.167-1.05 13.524 13.524 0 0 1-4.25-2.866 13.524 13.524 0 0 1-2.867-4.25A12.9 12.9 0 0 1 2.667 16c0-1.845.362-3.578 1.084-5.2a13.508 13.508 0 0 1 2.933-4.233A13.973 13.973 0 0 1 11 3.717c1.644-.7 3.4-1.05 5.267-1.05 1.777 0 3.455.305 5.033.916 1.578.611 2.96 1.456 4.15 2.534a12.123 12.123 0 0 1 2.833 3.833c.7 1.478 1.05 3.072 1.05 4.783 0 2.556-.778 4.517-2.333 5.884-1.556 1.366-3.445 2.05-5.667 2.05h-2.466c-.2 0-.34.055-.417.166a.626.626 0 0 0-.117.367c0 .267.167.65.5 1.15.334.5.5 1.072.5 1.717 0 1.11-.305 1.933-.916 2.466-.612.534-1.417.8-2.417.8Zm-7.334-12c.578 0 1.056-.189 1.434-.566.378-.378.566-.856.566-1.434s-.188-1.055-.566-1.433c-.378-.378-.856-.567-1.434-.567-.577 0-1.055.19-1.433.567-.378.378-.566.855-.566 1.433 0 .578.188 1.056.566 1.434.378.377.856.566 1.433.566Zm4-5.333c.578 0 1.056-.189 1.434-.567.378-.377.566-.855.566-1.433 0-.578-.188-1.056-.566-1.433-.378-.378-.856-.567-1.434-.567-.577 0-1.055.189-1.433.567-.378.377-.567.855-.567 1.433 0 .578.19 1.056.567 1.433.378.378.856.567 1.433.567Zm6.667 0c.578 0 1.056-.189 1.434-.567.377-.377.566-.855.566-1.433 0-.578-.189-1.056-.566-1.433C20.389 8.189 19.91 8 19.332 8s-1.055.189-1.433.567c-.378.377-.567.855-.567 1.433 0 .578.19 1.056.567 1.433.378.378.855.567 1.433.567Zm4 5.333c.578 0 1.056-.189 1.434-.566.377-.378.566-.856.566-1.434s-.189-1.055-.566-1.433c-.378-.378-.856-.567-1.434-.567s-1.055.19-1.433.567c-.378.378-.567.855-.567 1.433 0 .578.19 1.056.567 1.434.378.377.855.566 1.433.566Z"/><defs><linearGradient id="a" x1="16" x2="16" y1="2.667" y2="29.333" gradientUnits="userSpaceOnUse"><stop stop-color="#AD9EFF"/><stop offset="1" stop-color="#8E80DE"/></linearGradient></defs></svg>