<svg xmlns="http://www.w3.org/2000/svg" width="32" height="32" fill="none"><path fill="url(#a)" d="M5.333 25.333a2.568 2.568 0 0 1-1.883-.783 2.568 2.568 0 0 1-.784-1.883v-16c0-.734.262-1.361.784-1.884A2.568 2.568 0 0 1 5.333 4h21.334c.733 0 1.36.261 1.883.783.522.523.783 1.15.783 1.884v16c0 .733-.26 1.36-.783 1.883a2.568 2.568 0 0 1-1.884.783h-5.333v1.334c0 .377-.128.694-.383.95A1.29 1.29 0 0 1 20 28h-8a1.29 1.29 0 0 1-.95-.383 1.29 1.29 0 0 1-.384-.95v-1.334H5.333Z"/><defs><linearGradient id="a" x1="16" x2="16" y1="4" y2="28" gradientUnits="userSpaceOnUse"><stop stop-color="#AD9EFF"/><stop offset="1" stop-color="#8E80DE"/></linearGradient></defs></svg>