<svg xmlns="http://www.w3.org/2000/svg" width="16" height="16" fill="none"><path fill="#a8a8a8" d="M2.666 12V4.733L1.633 2.5a.624.624 0 0 1-.017-.508.663.663 0 0 1 .35-.375.647.647 0 0 1 .509-.025.632.632 0 0 1 .375.341L4.133 4.7h7.734l1.283-2.767a.664.664 0 0 1 .375-.35.585.585 0 0 1 .508.034.663.663 0 0 1 .35.375.624.624 0 0 1-.016.508l-1.034 2.233V12c0 .367-.13.68-.392.942a1.284 1.284 0 0 1-.941.391H4c-.367 0-.68-.13-.942-.391A1.284 1.284 0 0 1 2.666 12Zm4-3.333h2.667a.645.645 0 0 0 .475-.192A.645.645 0 0 0 10 8a.645.645 0 0 0-.192-.475.645.645 0 0 0-.475-.192H6.666a.645.645 0 0 0-.475.192A.645.645 0 0 0 6 8c0 .189.064.347.191.475a.645.645 0 0 0 .475.192Z"/></svg>