<svg xmlns="http://www.w3.org/2000/svg" width="32" height="32" fill="none"><path fill="url(#a)" d="M5.333 16c0 1.244.19 2.417.567 3.517A9.867 9.867 0 0 0 7.533 22.5c.245.311.367.65.367 1.017 0 .366-.134.683-.4.95a1.26 1.26 0 0 1-.967.383 1.185 1.185 0 0 1-.933-.483 13.28 13.28 0 0 1-2.167-3.85c-.51-1.412-.766-2.917-.766-4.517 0-1.6.255-3.111.766-4.533A12.774 12.774 0 0 1 5.6 7.633c.244-.31.555-.472.933-.483.378-.011.7.117.967.383.266.267.4.584.4.95 0 .367-.122.706-.367 1.017A10.312 10.312 0 0 0 5.9 12.517 10.65 10.65 0 0 0 5.333 16Zm5.333 0a5.139 5.139 0 0 0 .767 2.733c.2.311.295.656.284 1.034-.012.377-.15.7-.417.966a1.26 1.26 0 0 1-.967.384 1.007 1.007 0 0 1-.867-.484 7.618 7.618 0 0 1-1.083-2.166A8.057 8.057 0 0 1 8 16c0-.867.128-1.694.383-2.483a7.668 7.668 0 0 1 1.084-2.15c.222-.312.516-.467.883-.467s.683.133.95.4c.266.267.405.583.416.95.012.367-.083.706-.283 1.017A5.138 5.138 0 0 0 10.666 16ZM16 18.667a2.568 2.568 0 0 1-1.883-.784A2.568 2.568 0 0 1 13.332 16c0-.733.261-1.361.784-1.883A2.568 2.568 0 0 1 16 13.333c.733 0 1.36.261 1.883.784.522.522.784 1.15.784 1.883 0 .733-.262 1.361-.784 1.883a2.568 2.568 0 0 1-1.883.784ZM21.333 16a5.138 5.138 0 0 0-.766-2.733 1.68 1.68 0 0 1-.267-1.034c.022-.378.166-.7.433-.966.267-.267.578-.395.933-.384.356.011.645.173.867.484a7.67 7.67 0 0 1 1.083 2.15c.256.789.384 1.616.384 2.483 0 .844-.128 1.667-.384 2.467a7.62 7.62 0 0 1-1.083 2.166.969.969 0 0 1-.867.467c-.377 0-.7-.133-.966-.4a1.36 1.36 0 0 1-.417-.95 1.742 1.742 0 0 1 .284-1.017A5.139 5.139 0 0 0 21.334 16Zm5.334 0c0-1.245-.19-2.417-.567-3.517A9.864 9.864 0 0 0 24.466 9.5a1.698 1.698 0 0 1-.383-1.017 1.24 1.24 0 0 1 .384-.95c.266-.266.594-.394.983-.383a1.2 1.2 0 0 1 .95.483 12.773 12.773 0 0 1 2.167 3.834c.51 1.422.766 2.933.766 4.533 0 1.6-.255 3.105-.766 4.517a13.278 13.278 0 0 1-2.167 3.85 1.185 1.185 0 0 1-.933.483c-.378.011-.7-.117-.967-.383a1.298 1.298 0 0 1-.4-.95c0-.367.122-.706.366-1.017a10.312 10.312 0 0 0 1.634-3.017c.378-1.1.566-2.26.566-3.483Z"/><defs><linearGradient id="a" x1="16" x2="16" y1="7.149" y2="24.851" gradientUnits="userSpaceOnUse"><stop stop-color="#AD9EFF"/><stop offset="1" stop-color="#8E80DE"/></linearGradient></defs></svg>