<svg xmlns="http://www.w3.org/2000/svg" width="16" height="16" fill="none"><path fill="#a8a8a8" d="M4 13.333a1.929 1.929 0 0 1-1.416-.583A1.929 1.929 0 0 1 2 11.333h-.666a.645.645 0 0 1-.475-.191.645.645 0 0 1-.192-.475V4c0-.367.13-.68.392-.942.26-.26.575-.391.941-.391h8c.367 0 .68.13.942.391.261.261.392.575.392.942v1.333h1.333a1.324 1.324 0 0 1 1.067.534l1.466 1.95a.588.588 0 0 1 .1.183.682.682 0 0 1 .034.217v2.45a.645.645 0 0 1-.192.475.645.645 0 0 1-.475.191H14c0 .556-.194 1.028-.583 1.417a1.929 1.929 0 0 1-1.417.583 1.928 1.928 0 0 1-1.416-.583A1.929 1.929 0 0 1 10 11.333H6c0 .556-.194 1.028-.583 1.417A1.929 1.929 0 0 1 4 13.333ZM4 12a.645.645 0 0 0 .475-.192.645.645 0 0 0 .192-.475.645.645 0 0 0-.192-.475.645.645 0 0 0-.475-.191.645.645 0 0 0-.475.191.645.645 0 0 0-.191.475c0 .19.064.348.191.475A.645.645 0 0 0 4 12Zm8 0a.645.645 0 0 0 .475-.192.645.645 0 0 0 .192-.475.645.645 0 0 0-.192-.475.645.645 0 0 0-.475-.191.645.645 0 0 0-.475.191.645.645 0 0 0-.191.475c0 .19.064.348.191.475A.645.645 0 0 0 12 12Zm-.666-3.333h2.833l-1.5-2h-1.333v2Z"/></svg>