<svg xmlns="http://www.w3.org/2000/svg" width="24" height="24" fill="none"><path fill="url(#a)" d="M4 20c-.55 0-1.02-.196-1.413-.587A1.926 1.926 0 0 1 2 18V6c0-.55.196-1.02.587-1.412A1.926 1.926 0 0 1 4 4h16c.55 0 1.02.196 1.413.588.391.391.587.862.587 1.412v12c0 .55-.196 1.02-.587 1.413A1.926 1.926 0 0 1 20 20H4Zm8-7.175a1.04 1.04 0 0 0 .525-.15L19.6 8.25a.827.827 0 0 0 .4-.725.815.815 0 0 0-.425-.75c-.283-.167-.575-.158-.875.025L12 11 5.3 6.8c-.3-.183-.592-.188-.875-.013-.283.176-.425.421-.425.738 0 .167.033.313.1.438s.167.22.3.287l7.075 4.425a1.04 1.04 0 0 0 .525.15Z"/><defs><linearGradient id="a" x1="12" x2="12" y1="4" y2="20" gradientUnits="userSpaceOnUse"><stop stop-color="#AD9EFF"/><stop offset="1" stop-color="#8E80DE"/></linearGradient></defs></svg>