<svg xmlns="http://www.w3.org/2000/svg" width="32" height="32" fill="none"><path fill="url(#a)" d="M12 18.667v-5.334c0-.377.128-.694.383-.95a1.29 1.29 0 0 1 .95-.383h5.334c.377 0 .694.128.95.383.255.256.383.573.383.95v5.334c0 .377-.128.694-.383.95a1.29 1.29 0 0 1-.95.383h-5.334a1.29 1.29 0 0 1-.95-.383 1.29 1.29 0 0 1-.383-.95Zm0 8v-1.334H9.333a2.568 2.568 0 0 1-1.883-.783 2.568 2.568 0 0 1-.783-1.883V20H5.333a1.29 1.29 0 0 1-.95-.383 1.29 1.29 0 0 1-.383-.95c0-.378.128-.695.383-.95a1.29 1.29 0 0 1 .95-.384h1.334v-2.666H5.333a1.29 1.29 0 0 1-.95-.384 1.29 1.29 0 0 1-.383-.95c0-.377.128-.694.383-.95a1.29 1.29 0 0 1 .95-.383h1.334V9.333c0-.733.26-1.36.783-1.883a2.568 2.568 0 0 1 1.883-.783H12V5.333c0-.377.128-.694.383-.95a1.29 1.29 0 0 1 .95-.383c.378 0 .695.128.95.383.256.256.384.573.384.95v1.334h2.666V5.333c0-.377.128-.694.384-.95a1.29 1.29 0 0 1 .95-.383c.377 0 .694.128.95.383.255.256.383.573.383.95v1.334h2.667c.733 0 1.36.26 1.883.783.522.522.783 1.15.783 1.883V12h1.334c.377 0 .694.128.95.383.255.256.383.573.383.95 0 .378-.128.695-.383.95a1.29 1.29 0 0 1-.95.384h-1.334v2.666h1.334c.377 0 .694.128.95.384.255.255.383.572.383.95 0 .377-.128.694-.383.95a1.29 1.29 0 0 1-.95.383h-1.334v2.667c0 .733-.26 1.36-.783 1.883a2.568 2.568 0 0 1-1.883.783H20v1.334c0 .377-.128.694-.383.95a1.29 1.29 0 0 1-.95.383 1.29 1.29 0 0 1-.95-.383 1.29 1.29 0 0 1-.384-.95v-1.334h-2.666v1.334c0 .377-.128.694-.384.95a1.29 1.29 0 0 1-.95.383 1.29 1.29 0 0 1-.95-.383 1.29 1.29 0 0 1-.383-.95Zm10.667-4V9.333H9.333v13.334h13.334Z"/><defs><linearGradient id="a" x1="16" x2="16" y1="4" y2="28" gradientUnits="userSpaceOnUse"><stop stop-color="#AD9EFF"/><stop offset="1" stop-color="#8E80DE"/></linearGradient></defs></svg>