<svg xmlns="http://www.w3.org/2000/svg" width="32" height="32" fill="none"><path fill="url(#a)" d="M8 29.333a2.568 2.568 0 0 1-1.883-.783 2.568 2.568 0 0 1-.784-1.883v-14.9A2.633 2.633 0 0 1 6.1 9.9l6.467-6.467a2.633 2.633 0 0 1 1.867-.767H24c.733 0 1.361.262 1.884.784.522.522.783 1.15.783 1.883v21.334c0 .733-.261 1.36-.784 1.883a2.568 2.568 0 0 1-1.883.783H8Zm5.334-14.666c.377 0 .694-.128.95-.384a1.29 1.29 0 0 0 .383-.95v-2.666a1.29 1.29 0 0 0-.383-.95 1.29 1.29 0 0 0-.95-.384 1.29 1.29 0 0 0-.95.384 1.29 1.29 0 0 0-.384.95v2.666c0 .378.128.695.383.95.256.256.573.384.95.384Zm4 0c.377 0 .694-.128.95-.384a1.29 1.29 0 0 0 .383-.95v-2.666a1.29 1.29 0 0 0-.384-.95 1.29 1.29 0 0 0-.95-.384 1.29 1.29 0 0 0-.95.384 1.29 1.29 0 0 0-.383.95v2.666c0 .378.128.695.384.95.255.256.572.384.95.384Zm4 0c.377 0 .694-.128.95-.384a1.29 1.29 0 0 0 .383-.95v-2.666a1.29 1.29 0 0 0-.384-.95 1.29 1.29 0 0 0-.95-.384 1.29 1.29 0 0 0-.95.384 1.29 1.29 0 0 0-.383.95v2.666c0 .378.128.695.384.95.255.256.572.384.95.384Z"/><defs><linearGradient id="a" x1="16" x2="16" y1="2.667" y2="29.333" gradientUnits="userSpaceOnUse"><stop stop-color="#AD9EFF"/><stop offset="1" stop-color="#8E80DE"/></linearGradient></defs></svg>