<svg xmlns="http://www.w3.org/2000/svg" width="32" height="32" fill="none"><path fill="url(#a)" d="M12 21.333h8.666c.934 0 1.723-.322 2.367-.966.645-.645.967-1.434.967-2.367s-.322-1.722-.967-2.367c-.644-.644-1.433-.966-2.367-.966H20.6c-.178-1.134-.672-2.084-1.484-2.85-.81-.767-1.783-1.15-2.916-1.15-.933 0-1.8.233-2.6.7a4.41 4.41 0 0 0-1.8 1.966h-.167c-1.044 0-1.91.4-2.6 1.2A4.158 4.158 0 0 0 8 17.333c0 1.112.389 2.056 1.166 2.834.778.777 1.723 1.166 2.834 1.166Zm-6.667 5.334a2.568 2.568 0 0 1-1.883-.784A2.568 2.568 0 0 1 2.666 24V8c0-.733.262-1.361.784-1.883a2.568 2.568 0 0 1 1.883-.784h21.334c.733 0 1.36.261 1.883.784.522.522.783 1.15.783 1.883v16c0 .733-.26 1.361-.783 1.883a2.568 2.568 0 0 1-1.884.784H5.334Z"/><defs><linearGradient id="a" x1="16" x2="16" y1="5.333" y2="26.667" gradientUnits="userSpaceOnUse"><stop stop-color="#AD9EFF"/><stop offset="1" stop-color="#8E80DE"/></linearGradient></defs></svg>