<svg width="32" height="32" viewBox="0 0 32 32" fill="none" xmlns="http://www.w3.org/2000/svg">
<circle cx="16" cy="16" r="16" fill="white"/>
<path d="M7.33332 22.5C6.73749 22.5 6.22742 22.2878 5.80311 21.8635C5.37881 21.4392 5.16666 20.9292 5.16666 20.3333V11.6667C5.16666 11.0708 5.37881 10.5608 5.80311 10.1365C6.22742 9.71215 6.73749 9.5 7.33332 9.5H24.6667C25.2625 9.5 25.7726 9.71215 26.1969 10.1365C26.6212 10.5608 26.8333 11.0708 26.8333 11.6667V20.3333C26.8333 20.9292 26.6212 21.4392 26.1969 21.8635C25.7726 22.2878 25.2625 22.5 24.6667 22.5H7.33332ZM10.5833 17.0833V18.1667C10.5833 18.4736 10.6871 18.7309 10.8948 18.9385C11.1024 19.1462 11.3597 19.25 11.6667 19.25C11.9736 19.25 12.2309 19.1462 12.4385 18.9385C12.6462 18.7309 12.75 18.4736 12.75 18.1667V17.0833H13.8333C14.1403 17.0833 14.3976 16.9795 14.6052 16.7719C14.8128 16.5642 14.9167 16.3069 14.9167 16C14.9167 15.6931 14.8128 15.4358 14.6052 15.2281C14.3976 15.0205 14.1403 14.9167 13.8333 14.9167H12.75V13.8333C12.75 13.5264 12.6462 13.2691 12.4385 13.0615C12.2309 12.8538 11.9736 12.75 11.6667 12.75C11.3597 12.75 11.1024 12.8538 10.8948 13.0615C10.6871 13.2691 10.5833 13.5264 10.5833 13.8333V14.9167H9.49999C9.19305 14.9167 8.93575 15.0205 8.72811 15.2281C8.52048 15.4358 8.41666 15.6931 8.41666 16C8.41666 16.3069 8.52048 16.5642 8.72811 16.7719C8.93575 16.9795 9.19305 17.0833 9.49999 17.0833H10.5833ZM18.7083 19.25C19.1597 19.25 19.5434 19.092 19.8594 18.776C20.1753 18.4601 20.3333 18.0764 20.3333 17.625C20.3333 17.1736 20.1753 16.7899 19.8594 16.474C19.5434 16.158 19.1597 16 18.7083 16C18.2569 16 17.8733 16.158 17.5573 16.474C17.2413 16.7899 17.0833 17.1736 17.0833 17.625C17.0833 18.0764 17.2413 18.4601 17.5573 18.776C17.8733 19.092 18.2569 19.25 18.7083 19.25ZM21.9583 16C22.4097 16 22.7934 15.842 23.1094 15.526C23.4253 15.2101 23.5833 14.8264 23.5833 14.375C23.5833 13.9236 23.4253 13.5399 23.1094 13.224C22.7934 12.908 22.4097 12.75 21.9583 12.75C21.5069 12.75 21.1233 12.908 20.8073 13.224C20.4913 13.5399 20.3333 13.9236 20.3333 14.375C20.3333 14.8264 20.4913 15.2101 20.8073 15.526C21.1233 15.842 21.5069 16 21.9583 16Z" fill="url(#paint0_linear_2008_184)"/>
<defs>
<linearGradient id="paint0_linear_2008_184" x1="16" y1="9.5" x2="16" y2="22.5" gradientUnits="userSpaceOnUse">
<stop stop-color="#8575DD"/>
<stop offset="1" stop-color="#6B5CBF"/>
</linearGradient>
</defs>
</svg>
