<svg xmlns="http://www.w3.org/2000/svg" width="114" height="36" fill="none"><path fill="#fff" d="M4.786 11.987A6.774 6.774 0 0 1 7.18 9.628c1.003-.57 2.143-.854 3.42-.854v5.025H9.332c-1.504 0-2.644.353-3.418 1.06-.753.707-1.129 1.937-1.129 3.692v9.436H0V9.047h4.786v2.94ZM31.429 18.107c0 .684-.046 1.299-.137 1.846H17.446c.114 1.367.593 2.439 1.436 3.214.843.775 1.88 1.162 3.111 1.162 1.778 0 3.043-.764 3.795-2.29h5.162c-.547 1.823-1.595 3.327-3.145 4.512-1.55 1.163-3.453 1.744-5.71 1.744-1.823 0-3.464-.399-4.922-1.197-1.436-.82-2.565-1.971-3.385-3.453-.798-1.481-1.197-3.19-1.197-5.128 0-1.96.4-3.68 1.197-5.162.798-1.482 1.915-2.621 3.35-3.42 1.436-.797 3.089-1.196 4.958-1.196 1.8 0 3.407.388 4.82 1.163a8.02 8.02 0 0 1 3.316 3.316c.798 1.413 1.197 3.043 1.197 4.889Zm-4.957-1.368c-.023-1.23-.468-2.21-1.334-2.94-.866-.752-1.926-1.128-3.18-1.128-1.184 0-2.187.365-3.008 1.094-.797.707-1.287 1.698-1.47 2.974h8.992ZM40.495 12.979v9.162c0 .638.148 1.105.445 1.402.319.273.843.41 1.572.41h2.222v4.034h-3.008c-4.034 0-6.051-1.96-6.051-5.88v-9.128h-2.257V9.047h2.257V4.363h4.82v4.684h4.24v3.932h-4.24ZM52.963 11.987a6.774 6.774 0 0 1 2.394-2.359c1.002-.57 2.142-.854 3.418-.854v5.025H57.51c-1.504 0-2.643.353-3.418 1.06-.752.707-1.129 1.937-1.129 3.692v9.436h-4.786V9.047h4.786v2.94ZM70.41 28.295c-1.824 0-3.465-.399-4.924-1.197a8.976 8.976 0 0 1-3.453-3.453c-.82-1.481-1.23-3.19-1.23-5.128 0-1.937.421-3.647 1.265-5.128.866-1.482 2.04-2.621 3.52-3.419 1.482-.82 3.135-1.23 4.958-1.23 1.824 0 3.476.41 4.957 1.23a8.678 8.678 0 0 1 3.488 3.419c.866 1.481 1.299 3.19 1.299 5.128 0 1.937-.445 3.647-1.334 5.128a9.084 9.084 0 0 1-3.555 3.453c-1.482.798-3.145 1.197-4.992 1.197Zm0-4.171a4.99 4.99 0 0 0 2.427-.615c.775-.433 1.39-1.072 1.846-1.915.456-.843.684-1.869.684-3.077 0-1.8-.479-3.18-1.436-4.137-.935-.98-2.086-1.47-3.453-1.47-1.368 0-2.519.49-3.453 1.47-.912.958-1.368 2.336-1.368 4.137 0 1.8.445 3.191 1.334 4.171.911.957 2.05 1.436 3.418 1.436Z"/><path fill="#8875EB" d="m103.067 36-7.334-11.026L89.272 36h-9.949l11.539-18.308L79.067 0h10.205l7.23 10.872L102.863 0h9.948l-11.436 18.154L113.272 36h-10.205Z"/></svg>